<svg width="24" height="24" viewBox="0 0 24 24" fill="none" xmlns="http://www.w3.org/2000/svg">
<path fill-rule="evenodd" clip-rule="evenodd" d="M0.164538 4.7805C0.23483 4.69293 0.323888 4.62227 0.425139 4.57372C0.526389 4.52517 0.637249 4.49998 0.749538 4.5H20.2495C20.3618 4.50004 20.4725 4.52527 20.5737 4.57383C20.6749 4.62238 20.7639 4.69302 20.8341 4.78054C20.9044 4.86806 20.9541 4.97023 20.9796 5.07952C21.0051 5.18881 21.0058 5.30242 20.9815 5.412L20.6515 6.8985C21.7731 7.19795 22.7356 7.91911 23.3381 8.91137C23.9406 9.90363 24.1364 11.0903 23.8848 12.2235C23.6331 13.3568 22.9534 14.349 21.9875 14.993C21.0217 15.6369 19.8444 15.8829 18.7015 15.6795L18.5035 16.5645C18.3183 17.3971 17.8547 18.1417 17.1893 18.6753C16.5239 19.209 15.6965 19.4999 14.8435 19.5H6.15554C5.30237 19.4998 4.47477 19.2087 3.80936 18.6747C3.14395 18.1408 2.6805 17.3959 2.49554 16.563L0.0175377 5.412C-0.0065287 5.30268 -0.00581753 5.18935 0.0196191 5.08034C0.0450557 4.97132 0.0945726 4.86788 0.164538 4.7805ZM19.0255 14.2125C19.7825 14.3377 20.5587 14.168 21.1944 13.7385C21.8302 13.3089 22.2772 12.6522 22.4435 11.9032C22.6099 11.1542 22.4829 10.3699 22.0888 9.7116C21.6947 9.05332 21.0633 8.57107 20.3245 8.364L19.0255 14.2125ZM1.68554 6L3.95954 16.2375C4.07046 16.7373 4.3485 17.1843 4.74775 17.5047C5.147 17.8252 5.6436 17.9999 6.15554 18H14.8435C15.3555 17.9999 15.8521 17.8252 16.2513 17.5047C16.6506 17.1843 16.9286 16.7373 17.0395 16.2375L19.315 6H1.68554Z" fill="#FFA902"/>
</svg>
