<svg width="18" height="18" viewBox="0 0 18 18" fill="none" xmlns="http://www.w3.org/2000/svg">
<path d="M0 7.13847C0 6.6221 0.418596 6.20351 0.934959 6.20351H1.125C1.74632 6.20351 2.25 5.69983 2.25 5.07851V2.06748C2.25 1.25356 2.90981 0.59375 3.72373 0.59375C4.2096 0.59375 4.66425 0.833235 4.93907 1.23392L7.34204 4.73751C7.97136 5.65509 9.01252 6.20351 10.1252 6.20351H10.6951C12.2442 6.20351 13.5 4.94772 13.5 3.39863V1.71875C13.5 1.09743 14.0037 0.59375 14.625 0.59375C15.2463 0.59375 15.75 1.09743 15.75 1.71875V5.07851C15.75 5.69983 16.2537 6.20351 16.875 6.20351H17.065C17.5814 6.20351 18 6.6221 18 7.13847C18 7.65483 17.5814 8.07343 17.065 8.07343H16.685C16.1686 8.07343 15.75 8.49202 15.75 9.00838C15.75 9.52475 16.1686 9.94334 16.685 9.94334H17.065C17.5814 9.94334 18 10.3619 18 10.8783C18 11.3947 17.5814 11.8133 17.065 11.8133H16.875C16.2537 11.8133 15.75 12.3169 15.75 12.9383V15.9485C15.75 16.7628 15.0898 17.423 14.2754 17.423C13.79 17.423 13.3357 17.1841 13.0605 16.7841L10.6454 13.2731C10.0168 12.3592 8.97861 11.8133 7.86938 11.8133H7.30488C5.75579 11.8133 4.5 13.069 4.5 14.6181V16.298C4.5 16.9193 3.99632 17.423 3.375 17.423C2.75368 17.423 2.25 16.9193 2.25 16.298V12.9383C2.25 12.3169 1.74632 11.8133 1.125 11.8133H0.934959C0.418596 11.8133 0 11.3947 0 10.8783C0 10.3619 0.418596 9.94334 0.934959 9.94334H1.31504C1.8314 9.94334 2.25 9.52475 2.25 9.00838C2.25 8.49202 1.8314 8.07343 1.31504 8.07343H0.934959C0.418596 8.07343 0 7.65483 0 7.13847ZM4.5 5.76594C4.5 6.0076 4.69591 6.20351 4.93757 6.20351C5.29026 6.20351 5.49803 5.80764 5.29769 5.51738C5.05383 5.16407 4.5 5.33664 4.5 5.76594ZM5.43496 8.07343C4.91859 8.07343 4.5 8.49202 4.5 9.00838C4.5 9.52475 4.9186 9.94334 5.43496 9.94334H6.57252C7.32485 9.94334 7.76908 9.09999 7.34355 8.47956C7.1692 8.22536 6.88076 8.07343 6.57252 8.07343H5.43496ZM12.6892 12.5113C12.9374 12.8701 13.5 12.6944 13.5 12.2582C13.5 12.0125 13.3008 11.8133 13.0551 11.8133C12.6963 11.8133 12.485 12.2162 12.6892 12.5113ZM11.4138 8.07343C10.6597 8.07343 10.2159 8.92023 10.6449 9.54035C10.8195 9.79273 11.1069 9.94334 11.4138 9.94334H12.565C13.0814 9.94334 13.5 9.52475 13.5 9.00838C13.5 8.49202 13.0814 8.07343 12.565 8.07343H11.4138Z" fill="#FFA902"/>
</svg>
